<?xml version="1.0" encoding="UTF-8"?>
<svg xmlns="http://www.w3.org/2000/svg" xmlns:xlink="http://www.w3.org/1999/xlink" width="40px" height="40px" viewBox="0 0 40 40" version="1.1">
<g id="surface1">
<path style=" stroke:none;fill-rule:nonzero;fill:rgb(0%,0%,0%);fill-opacity:1;" d="M 18.980469 6.460938 C 18.75 6.546875 18.046875 6.769531 17.957031 6.78125 C 17.929688 6.785156 17.90625 6.789062 17.90625 6.792969 C 17.90625 6.792969 17.882812 6.800781 17.855469 6.804688 C 17.753906 6.824219 17.445312 6.921875 17.269531 6.992188 C 16.921875 7.136719 16.386719 7.433594 16.269531 7.542969 C 16.253906 7.558594 16.167969 7.628906 16.082031 7.695312 C 15.574219 8.089844 15.015625 8.679688 14.722656 9.132812 C 14.59375 9.328125 14.3125 9.832031 14.304688 9.878906 C 14.296875 9.910156 14.289062 9.929688 14.183594 10.175781 C 14.035156 10.539062 13.796875 11.394531 13.789062 11.613281 C 13.789062 11.648438 13.773438 11.777344 13.757812 11.90625 C 13.6875 12.460938 13.664062 12.863281 13.644531 14.03125 C 13.621094 15.320312 13.632812 15.625 13.707031 15.917969 C 13.789062 16.226562 13.921875 16.457031 14.128906 16.636719 C 14.246094 16.734375 14.550781 16.9375 14.738281 17.042969 L 14.890625 17.128906 L 14.90625 17.246094 C 14.9375 17.515625 15.066406 18.152344 15.132812 18.375 C 15.285156 18.878906 15.332031 18.992188 15.550781 19.3125 C 15.742188 19.59375 15.9375 19.792969 16.3125 20.074219 C 16.59375 20.285156 16.855469 20.507812 16.855469 20.542969 C 16.855469 20.578125 16.441406 20.753906 16.292969 20.78125 C 16.261719 20.785156 16.238281 20.789062 16.238281 20.792969 C 16.238281 20.792969 16.210938 20.796875 16.175781 20.800781 C 16.140625 20.808594 16.03125 20.828125 15.9375 20.851562 C 15.839844 20.875 15.570312 20.925781 15.332031 20.96875 C 14.652344 21.089844 14.359375 21.144531 14.113281 21.203125 C 13.988281 21.230469 13.867188 21.253906 13.84375 21.257812 C 13.820312 21.261719 13.789062 21.269531 13.773438 21.277344 C 13.761719 21.289062 13.742188 21.289062 13.730469 21.28125 C 13.722656 21.273438 13.707031 21.277344 13.699219 21.292969 C 13.691406 21.304688 13.675781 21.308594 13.667969 21.300781 C 13.648438 21.292969 13.257812 21.414062 12.988281 21.515625 C 12.757812 21.605469 12.269531 21.839844 12.078125 21.960938 C 11.492188 22.320312 11.023438 22.792969 10.664062 23.375 C 10.511719 23.617188 10.292969 24.023438 10.28125 24.078125 C 10.277344 24.097656 10.25 24.175781 10.214844 24.25 C 10.113281 24.496094 9.984375 24.902344 9.929688 25.144531 C 9.859375 25.445312 9.792969 25.800781 9.789062 25.882812 C 9.789062 25.917969 9.765625 26.097656 9.738281 26.28125 C 9.664062 26.804688 9.59375 27.367188 9.46875 28.480469 C 9.40625 29.046875 9.339844 29.617188 9.324219 29.746094 C 9.304688 29.878906 9.292969 30.03125 9.292969 30.085938 C 9.292969 30.140625 9.28125 30.191406 9.269531 30.199219 C 9.257812 30.207031 9.253906 30.21875 9.261719 30.230469 C 9.269531 30.242188 9.253906 30.386719 9.230469 30.554688 C 9.144531 31.179688 9.121094 31.410156 9.117188 31.707031 C 9.117188 32.0625 9.144531 32.238281 9.242188 32.457031 C 9.386719 32.792969 9.601562 33.003906 10.1875 33.398438 L 10.523438 33.625 L 29.464844 33.625 L 29.558594 33.570312 C 30.109375 33.25 30.578125 32.84375 30.703125 32.582031 C 30.925781 32.109375 30.9375 31.75 30.769531 30.546875 C 30.746094 30.382812 30.730469 30.234375 30.738281 30.214844 C 30.742188 30.203125 30.738281 30.183594 30.730469 30.175781 C 30.722656 30.171875 30.710938 30.128906 30.710938 30.078125 C 30.710938 30.027344 30.691406 29.835938 30.667969 29.644531 C 30.625 29.289062 30.578125 28.855469 30.488281 27.925781 C 30.40625 27.074219 30.335938 26.507812 30.25 26.039062 C 30.226562 25.914062 30.210938 25.804688 30.210938 25.796875 C 30.210938 25.785156 30.210938 25.777344 30.207031 25.769531 C 30.207031 25.765625 30.203125 25.726562 30.195312 25.679688 C 30.183594 25.542969 30.042969 25 29.953125 24.738281 C 29.734375 24.089844 29.597656 23.792969 29.316406 23.355469 C 28.960938 22.804688 28.449219 22.316406 27.789062 21.902344 C 27.472656 21.703125 26.667969 21.34375 26.453125 21.304688 C 26.425781 21.296875 26.402344 21.292969 26.394531 21.292969 C 26.390625 21.289062 26.378906 21.285156 26.363281 21.28125 C 26.355469 21.277344 26.339844 21.273438 26.332031 21.273438 C 26.328125 21.269531 26.304688 21.265625 26.28125 21.261719 C 26.257812 21.253906 26.136719 21.226562 26.011719 21.199219 C 25.71875 21.128906 25.230469 21.042969 24.675781 20.957031 C 24.4375 20.921875 24.15625 20.875 24.050781 20.851562 C 23.949219 20.828125 23.84375 20.804688 23.8125 20.800781 C 23.785156 20.796875 23.753906 20.792969 23.75 20.792969 C 23.746094 20.785156 23.734375 20.785156 23.726562 20.789062 C 23.667969 20.796875 23.246094 20.621094 23.148438 20.550781 C 23.136719 20.539062 23.371094 20.324219 23.667969 20.074219 C 24.046875 19.757812 24.3125 19.503906 24.429688 19.34375 C 24.480469 19.273438 24.535156 19.203125 24.550781 19.183594 C 24.589844 19.140625 24.734375 18.855469 24.722656 18.855469 C 24.714844 18.855469 24.722656 18.824219 24.738281 18.785156 C 24.839844 18.550781 25.019531 17.789062 25.082031 17.328125 C 25.097656 17.230469 25.117188 17.140625 25.121094 17.132812 C 25.128906 17.121094 25.21875 17.0625 25.324219 17.003906 C 25.621094 16.824219 25.8125 16.679688 25.960938 16.527344 C 26.09375 16.390625 26.203125 16.238281 26.222656 16.167969 C 26.226562 16.148438 26.25 16.054688 26.28125 15.960938 C 26.363281 15.679688 26.375 15.375 26.355469 13.917969 C 26.332031 12.625 26.324219 12.378906 26.257812 11.875 C 26.238281 11.730469 26.222656 11.578125 26.21875 11.535156 C 26.175781 11.042969 25.859375 10.109375 25.554688 9.574219 C 25.457031 9.398438 25.300781 9.148438 25.273438 9.125 C 25.265625 9.117188 25.25 9.089844 25.234375 9.0625 C 25.1875 8.976562 24.746094 8.46875 24.460938 8.179688 C 24.191406 7.902344 23.78125 7.558594 23.542969 7.40625 C 23.226562 7.203125 22.386719 6.855469 22.09375 6.800781 C 22.058594 6.796875 22.003906 6.78125 21.96875 6.773438 C 21.535156 6.640625 21.199219 6.527344 21.011719 6.460938 L 20.78125 6.375 L 19.992188 6.378906 L 19.199219 6.378906 Z M 20.347656 12.152344 C 22.027344 12.878906 22.238281 12.953125 23 13.082031 C 23.59375 13.179688 23.796875 13.253906 23.957031 13.421875 C 24.050781 13.519531 24.167969 13.746094 24.207031 13.90625 L 24.230469 14.007812 L 24.140625 14.097656 C 24.0625 14.175781 23.425781 14.628906 23.351562 14.65625 C 23.335938 14.664062 23.238281 14.605469 23.136719 14.527344 C 22.914062 14.359375 22.675781 14.230469 22.457031 14.164062 C 22.328125 14.121094 22.257812 14.113281 22.019531 14.113281 C 21.765625 14.113281 21.722656 14.121094 21.574219 14.171875 C 21.375 14.242188 21.191406 14.351562 20.992188 14.507812 C 20.902344 14.578125 20.816406 14.628906 20.773438 14.640625 C 20.730469 14.644531 20.601562 14.640625 20.480469 14.625 C 20.058594 14.574219 19.796875 14.574219 19.550781 14.625 C 19.277344 14.683594 19.257812 14.675781 18.957031 14.488281 C 18.695312 14.320312 18.414062 14.183594 18.230469 14.136719 C 18.058594 14.089844 17.78125 14.089844 17.605469 14.136719 C 17.40625 14.183594 17.125 14.332031 16.910156 14.492188 C 16.804688 14.574219 16.710938 14.644531 16.695312 14.65625 C 16.664062 14.683594 16.054688 14.277344 15.882812 14.117188 L 15.769531 14.011719 L 15.800781 13.890625 C 15.820312 13.824219 15.859375 13.722656 15.886719 13.660156 C 16.050781 13.335938 16.265625 13.210938 16.84375 13.105469 C 17.8125 12.925781 17.894531 12.898438 18.894531 12.484375 C 19.878906 12.074219 20.007812 12.023438 20.023438 12.019531 C 20.035156 12.019531 20.179688 12.082031 20.347656 12.152344 Z M 25.144531 14.855469 L 25.3125 14.921875 L 25.355469 15.109375 C 25.382812 15.214844 25.40625 15.398438 25.414062 15.515625 C 25.421875 15.714844 25.417969 15.738281 25.367188 15.839844 C 25.273438 16.03125 25.109375 16.109375 24.617188 16.207031 L 24.347656 16.261719 L 24.320312 16.363281 C 24.273438 16.546875 24.171875 17.058594 24.09375 17.5 C 23.96875 18.21875 23.882812 18.488281 23.679688 18.796875 C 23.480469 19.109375 23.121094 19.429688 22.53125 19.824219 C 21.371094 20.605469 20.71875 20.878906 19.992188 20.878906 C 19.429688 20.878906 18.945312 20.71875 18.261719 20.3125 C 17.753906 20.011719 16.851562 19.390625 16.671875 19.21875 C 16.226562 18.796875 16.074219 18.433594 15.863281 17.269531 C 15.769531 16.730469 15.671875 16.292969 15.648438 16.265625 C 15.640625 16.253906 15.527344 16.230469 15.398438 16.207031 C 15.019531 16.140625 14.847656 16.078125 14.730469 15.960938 C 14.660156 15.894531 14.621094 15.835938 14.605469 15.769531 C 14.570312 15.640625 14.589844 15.347656 14.648438 15.109375 L 14.695312 14.917969 L 14.789062 14.886719 C 14.925781 14.839844 15.136719 14.824219 15.269531 14.851562 C 15.507812 14.902344 15.855469 15.125 16.136719 15.40625 C 16.304688 15.570312 16.351562 15.671875 16.460938 16.066406 C 16.492188 16.195312 16.550781 16.367188 16.585938 16.449219 C 16.734375 16.800781 17.09375 17.105469 17.519531 17.222656 C 17.71875 17.277344 18.160156 17.273438 18.386719 17.210938 C 18.609375 17.152344 18.945312 16.980469 19.085938 16.855469 C 19.304688 16.660156 19.375 16.496094 19.511719 15.886719 C 19.554688 15.6875 19.59375 15.523438 19.601562 15.515625 C 19.613281 15.503906 20.390625 15.488281 20.40625 15.503906 C 20.410156 15.507812 20.445312 15.671875 20.488281 15.867188 C 20.613281 16.453125 20.679688 16.621094 20.875 16.8125 C 21.292969 17.226562 22.09375 17.378906 22.667969 17.152344 C 22.96875 17.03125 23.296875 16.761719 23.402344 16.542969 C 23.4375 16.472656 23.472656 16.34375 23.488281 16.21875 C 23.527344 15.980469 23.566406 15.84375 23.636719 15.726562 C 23.765625 15.496094 24.078125 15.234375 24.542969 14.957031 C 24.902344 14.746094 24.886719 14.746094 25.144531 14.855469 Z M 19.3125 21.722656 C 19.585938 21.796875 19.601562 21.800781 19.988281 21.800781 C 20.371094 21.800781 20.394531 21.800781 20.65625 21.734375 C 20.804688 21.695312 21.105469 21.605469 21.320312 21.535156 L 21.714844 21.40625 L 21.699219 21.460938 C 21.65625 21.6875 21.492188 21.964844 21.28125 22.175781 C 20.945312 22.515625 20.515625 22.6875 20 22.6875 C 19.371094 22.6875 18.832031 22.414062 18.511719 21.925781 C 18.425781 21.796875 18.328125 21.578125 18.300781 21.464844 L 18.289062 21.398438 L 18.65625 21.523438 C 18.859375 21.589844 19.15625 21.683594 19.3125 21.722656 Z M 21.105469 23.613281 C 24.429688 23.625 24.972656 23.632812 25.113281 23.65625 C 25.363281 23.707031 25.355469 23.703125 25.355469 23.785156 C 25.355469 23.828125 25.371094 23.921875 25.394531 24 C 25.46875 24.257812 25.507812 24.65625 25.542969 25.519531 C 25.578125 26.503906 25.5625 28.8125 25.511719 30.011719 C 25.496094 30.277344 25.457031 30.882812 25.449219 30.890625 C 25.449219 30.890625 23.074219 30.898438 20.175781 30.902344 C 17.277344 30.914062 14.816406 30.921875 14.703125 30.929688 L 14.496094 30.9375 L 14.511719 28.796875 L 14.523438 26.65625 L 14.433594 26.53125 C 14.339844 26.40625 14.339844 26.40625 14.21875 26.394531 L 14.097656 26.386719 L 14.101562 26.238281 C 14.105469 26.160156 14.109375 26.089844 14.113281 26.082031 C 14.117188 26.078125 14.125 25.992188 14.132812 25.894531 C 14.140625 25.796875 14.152344 25.652344 14.160156 25.574219 L 14.171875 25.429688 L 14.335938 25.355469 C 14.425781 25.316406 14.503906 25.269531 14.507812 25.257812 C 14.515625 25.242188 14.53125 25.0625 14.542969 24.859375 C 14.585938 24.117188 14.601562 23.984375 14.640625 23.890625 C 14.710938 23.730469 14.855469 23.648438 15.136719 23.605469 C 15.203125 23.59375 15.710938 23.589844 16.261719 23.59375 C 16.8125 23.597656 18.988281 23.609375 21.105469 23.613281 Z M 25.925781 31.921875 C 25.914062 32.042969 25.875 32.625 25.875 32.675781 C 25.875 32.707031 25.3125 32.707031 20.019531 32.707031 C 16.800781 32.707031 14.167969 32.707031 14.167969 32.703125 C 14.167969 32.699219 14.148438 32.503906 14.125 32.269531 C 14.101562 32.035156 14.082031 31.835938 14.082031 31.828125 C 14.082031 31.820312 16.75 31.8125 20.011719 31.8125 L 25.9375 31.8125 Z M 25.925781 31.921875 "/>
<path style=" stroke:none;fill-rule:nonzero;fill:rgb(0%,0%,0%);fill-opacity:1;" d="M 20.324219 25.027344 C 20.054688 25.140625 19.957031 25.328125 19.84375 25.933594 C 19.785156 26.253906 19.757812 26.355469 19.574219 26.96875 C 19.140625 28.402344 19.039062 29.070312 19.203125 29.410156 C 19.273438 29.5625 19.492188 29.582031 19.726562 29.457031 C 19.953125 29.335938 20.042969 29.15625 20.15625 28.589844 C 20.199219 28.386719 20.3125 27.90625 20.410156 27.519531 C 20.769531 26.117188 20.875 25.65625 20.875 25.480469 C 20.875 25.285156 20.832031 25.15625 20.738281 25.0625 C 20.640625 24.964844 20.5 24.957031 20.324219 25.027344 Z M 20.324219 25.027344 "/>
<path style=" stroke:none;fill-rule:nonzero;fill:rgb(0%,0%,0%);fill-opacity:1;" d="M 17.679688 25.492188 C 17.519531 25.527344 17.414062 25.609375 17.011719 26 C 16.570312 26.429688 15.917969 27.148438 15.917969 27.203125 C 15.917969 27.226562 16.128906 27.542969 16.269531 27.730469 C 16.460938 27.988281 16.617188 28.164062 16.851562 28.402344 C 17.230469 28.789062 17.519531 28.980469 17.75 28.992188 C 17.914062 29.007812 17.992188 28.957031 18.070312 28.8125 C 18.121094 28.714844 18.125 28.679688 18.121094 28.582031 C 18.101562 28.378906 18.007812 28.242188 17.621094 27.882812 C 17.332031 27.609375 17.207031 27.46875 17.113281 27.308594 L 17.035156 27.175781 L 17.167969 27.066406 C 17.382812 26.878906 17.773438 26.480469 17.890625 26.324219 C 18.023438 26.140625 18.136719 25.917969 18.15625 25.789062 C 18.195312 25.539062 18 25.417969 17.679688 25.492188 Z M 17.679688 25.492188 "/>
<path style=" stroke:none;fill-rule:nonzero;fill:rgb(0%,0%,0%);fill-opacity:1;" d="M 22 25.519531 C 21.824219 25.613281 21.796875 25.828125 21.925781 26.097656 C 21.996094 26.246094 22.046875 26.300781 22.363281 26.613281 C 22.558594 26.808594 22.773438 27.011719 22.839844 27.0625 C 22.90625 27.113281 22.957031 27.167969 22.957031 27.175781 C 22.957031 27.1875 22.921875 27.261719 22.882812 27.332031 C 22.824219 27.429688 22.691406 27.582031 22.394531 27.875 C 21.917969 28.347656 21.863281 28.429688 21.878906 28.648438 C 21.890625 28.847656 21.945312 28.941406 22.074219 28.984375 C 22.199219 29.035156 22.386719 29.023438 22.511719 28.96875 C 22.558594 28.945312 22.691406 28.832031 22.832031 28.679688 C 22.964844 28.542969 23.242188 28.261719 23.449219 28.054688 C 23.867188 27.636719 24.09375 27.355469 24.070312 27.285156 C 23.984375 27.011719 23.074219 25.984375 22.589844 25.621094 C 22.40625 25.480469 22.148438 25.4375 22 25.519531 Z M 22 25.519531 "/>
</g>
</svg>
